<svg id="Layer_3" data-name="Layer 3" xmlns="http://www.w3.org/2000/svg" viewBox="0 0 560 560">
  <defs>
    <style>
      .cls-1 {
        fill: #b7c391;
      }

      .cls-2 {
        fill: #f2c061;
      }

      .cls-3 {
        fill: #457ede;
      }

      .cls-4 {
        fill: #f5746e;
      }

      .cls-5 {
        fill: #79b083;
      }
    </style>
  </defs>
  <polygon class="cls-1" points="249.31 310.87 249.31 310.47 249.31 310.63 249.31 310.87"/>
  <path class="cls-1" d="M249.05,310.67c0,.12,0,.23,0,.35l.52-.35-.52-.35C249.05,310.44,249.05,310.55,249.05,310.67Z"/>
  <polygon class="cls-1" points="249.31 310.67 249.31 310.67 249.31 310.67 249.31 310.67"/>
  <path class="cls-2" d="M299.9,148.77s-5.6,113.58,108.49,112.54v8.82H282.88V148.77Z"/>
  <path class="cls-3" d="M268.48,405.88,231.71,284.53H190.38L151.43,405.88h39s5.21-9.05,19.55-9.33h1.32c14.35.28,19.75,9.33,19.75,9.33h37.39Z"/>
  <path class="cls-4" d="M365.93,284.53s-5.39,9.05-19.75,9.33h-1.31c-14.35-.28-19.56-9.33-19.56-9.33H282.88c12.43,15.82,24.77,35.37,32.81,58.14a152.92,152.92,0,0,1,8.63,63.22h42.81a152.92,152.92,0,0,1,8.63-63.22c8-22.77,20.38-42.32,32.81-58.14Z"/>
  <path class="cls-5" d="M151.43,209.45c0,33.51,52.41,60.68,117.05,60.68V229.76c-2.29-1.67-9.42-7-9.33-21.07s9.33-19.55,9.33-19.55V148.77C203.84,148.77,151.43,175.94,151.43,209.45Z"/>
</svg>
