<svg id="Layer_3" data-name="Layer 3" xmlns="http://www.w3.org/2000/svg" viewBox="0 0 560 560">
  <defs>
    <style>
      .cls-1 {
        fill: #f2c061;
      }

      .cls-2 {
        fill: #b7c391;
      }

      .cls-3 {
        fill: #457ede;
      }

      .cls-4 {
        fill: #f5746e;
      }

      .cls-5 {
        fill: #79b083;
      }
    </style>
  </defs>
  <path class="cls-1" d="M178.89,219.32s-5.6,113.58,108.48,112.54v8.82H161.87V219.32Z"/>
  <polygon class="cls-2" points="147.41 291.85 147.41 291.45 147.41 291.61 147.41 291.85"/>
  <path class="cls-2" d="M129.61,280v.35l.53-.35-.53-.34Z"/>
  <path class="cls-3" d="M418,340.67,381.24,219.33H339.9L301,340.67h39s5.21-9.05,19.55-9.33h1.32c14.35.28,19.75,9.33,19.75,9.33H418Z"/>
  <polygon class="cls-2" points="380.61 340.95 380.61 340.95 380.61 340.95 380.61 340.95"/>
  <polygon class="cls-2" points="339.99 341.95 339.99 341.95 339.99 341.95 339.99 341.95"/>
  <path class="cls-4" d="M474.62,219.32s-5.4,9.05-19.76,9.33h-1.31c-14.35-.28-19.56-9.33-19.56-9.33H391.56c12.43,15.82,24.77,35.37,32.81,58.15A152.85,152.85,0,0,1,433,340.68h42.81a152.85,152.85,0,0,1,8.63-63.21c8-22.77,20.38-42.33,32.81-58.15Z"/>
  <path class="cls-5" d="M30.36,280.3c0,33.51,52.41,60.68,117.05,60.68V300.61c-2.29-1.67-9.43-7-9.33-21.07S147.41,260,147.41,260V219.62C82.77,219.62,30.36,246.79,30.36,280.3Z"/>
</svg>
