<svg width="28" height="30" viewBox="0 0 28 30" fill="none" xmlns="http://www.w3.org/2000/svg">
<path d="M0 1.84102V28.1576C0.000177215 28.2147 0.0172941 28.2705 0.0492042 28.318C0.0811143 28.3654 0.126397 28.4024 0.179375 28.4244C0.232352 28.4464 0.290666 28.4523 0.347003 28.4414C0.40334 28.4305 0.455194 28.4033 0.496061 28.3632L14.2693 15L0.496061 1.63545C0.455194 1.59536 0.40334 1.56817 0.347003 1.55728C0.290666 1.5464 0.232352 1.55231 0.179375 1.57426C0.126397 1.59622 0.0811143 1.63324 0.0492042 1.6807C0.0172941 1.72815 0.000177215 1.78393 0 1.84102ZM20.0443 9.509L2.77444 0.0430562L2.76367 0.0370295C2.46617 -0.123683 2.18347 0.276759 2.42713 0.509791L15.9648 13.3882L20.0443 9.509ZM2.42848 29.4902C2.18347 29.7232 2.46617 30.1237 2.76502 29.963L2.77579 29.9569L20.0443 20.491L15.9648 16.6105L2.42848 29.4902ZM27.0161 13.3259L22.1935 10.6835L17.659 15L22.1935 19.3145L27.0161 16.6741C28.328 15.9529 28.328 14.0471 27.0161 13.3259Z" fill="white"/>
</svg>
